<svg width="94" height="112" viewBox="0 0 94 112" fill="none" xmlns="http://www.w3.org/2000/svg">
<path d="M0 8C0 3.58172 3.58172 0 8 0H85.3333C89.7516 0 93.3333 3.58172 93.3333 8V104C93.3333 108.418 89.7516 112 85.3333 112H8.00001C3.58173 112 0 108.418 0 104V8Z" fill="#27272A"/>
<path d="M36.5833 26C37.5833 25 36.8333 22 35.1453 22C33.4573 22 33.5833 24 34.5833 24C35.5833 24 35.5833 26 35.5833 27C35.5833 28 36.5833 26 36.5833 26ZM32.4003 27.72C33.4003 26.72 32.6503 23.72 30.9623 23.72C29.2743 23.72 29.4003 25.72 30.4003 25.72C31.4003 25.72 31.4003 27.72 31.4003 28.72C31.4003 29.72 32.4003 27.72 32.4003 27.72Z" fill="#AA8DD8"/>
<path d="M58.7753 54.856C58.9643 55.664 60.0023 57.136 60.8073 56.947C61.6133 56.757 61.8843 54.976 61.6953 54.17C61.5063 53.362 60.6973 52.863 59.8913 53.053C59.0863 53.243 58.5853 54.05 58.7753 54.856ZM53.3413 55.505C53.3443 56.335 54.0223 58.003 54.8503 58C55.6783 57.996 56.3443 56.323 56.3413 55.494C56.3383 54.665 55.6643 53.997 54.8363 53.999C54.0083 54.003 53.3383 54.676 53.3413 55.505ZM48.0703 53.059C47.7443 53.823 47.7053 55.622 48.4663 55.949C49.2293 56.273 50.5033 55.002 50.8293 54.239C51.1543 53.477 50.8013 52.596 50.0403 52.269C49.2783 51.944 48.3973 52.296 48.0703 53.059ZM43.0393 42.019C42.2273 42.191 40.7313 43.192 40.9003 44.002C41.0733 44.812 42.8453 45.126 43.6573 44.955C44.4683 44.784 44.9863 43.988 44.8173 43.178C44.6453 42.368 43.8523 41.848 43.0393 42.019ZM41.0023 37.019C40.1903 37.191 38.6943 38.192 38.8633 39.002C39.0363 39.812 40.8083 40.126 41.6203 39.955C42.4313 39.784 42.9493 38.988 42.7803 38.178C42.6083 37.368 41.8143 36.848 41.0023 37.019Z" fill="#744EAA"/>
<path d="M56.4123 56C59.2433 56 61.3383 55.123 61.6783 54.973C63.9493 53.963 64.9713 51.304 63.9623 49.034C62.9633 46.784 60.3463 45.759 58.0903 46.72C57.9573 46.77 56.2973 47.369 54.7473 46.648C52.8963 45.787 51.7523 43.339 51.1193 41.439C50.9753 41.009 50.7343 40.165 50.4333 39.123C48.5673 32.652 47.6013 30.838 46.4503 29.303C42.7393 24.352 36.8583 24.007 33.9673 24.587C31.5303 25.074 29.9493 27.445 30.4373 29.882C30.9253 32.32 33.2973 33.902 35.7333 33.412C35.8953 33.386 37.9373 33.106 39.1573 34.581C39.8003 35.868 41.2373 39.709 41.7873 41.615C42.1333 42.814 42.4163 43.786 42.5813 44.282C44.3543 49.599 47.2473 53.175 51.1843 54.911C53.0363 55.729 54.8383 56 56.4123 56Z" fill="#9266CC"/>
<path d="M35.8503 28C36.4026 28 36.8503 27.5523 36.8503 27C36.8503 26.4477 36.4026 26 35.8503 26C35.2981 26 34.8503 26.4477 34.8503 27C34.8503 27.5523 35.2981 28 35.8503 28Z" fill="#202024"/>
<path d="M60.0914 54.964C60.0024 54.964 59.9114 54.952 59.8224 54.928C59.2904 54.78 58.9784 54.229 59.1264 53.697C59.8834 50.975 58.3564 49.155 58.3414 49.137C57.9824 48.718 58.0294 48.086 58.4484 47.727C58.8664 47.368 59.4994 47.415 59.8584 47.834C59.9504 47.941 62.0924 50.494 61.0534 54.231C60.9314 54.674 60.5284 54.964 60.0914 54.964ZM52.8924 54.401C52.6474 54.401 52.4024 54.312 52.2084 54.131C51.8054 53.753 51.7844 53.12 52.1614 52.717C53.6464 51.13 53.6144 48.524 53.6134 48.497C53.5974 47.945 54.0324 47.485 54.5854 47.469C55.1274 47.464 55.5984 47.888 55.6134 48.441C55.6174 48.58 55.6864 51.878 53.6224 54.085C53.4254 54.295 53.1584 54.401 52.8924 54.401ZM44.3504 45.705C43.8704 45.705 43.4464 45.358 43.3654 44.868C43.2754 44.324 43.6434 43.808 44.1884 43.719C47.2624 43.209 48.9624 41.342 48.9794 41.323C49.3444 40.913 49.9774 40.874 50.3884 41.239C50.8004 41.604 50.8414 42.232 50.4794 42.645C50.3924 42.744 48.3234 45.06 44.5154 45.691C44.4594 45.701 44.4044 45.705 44.3504 45.705ZM47.2714 50.562C46.8464 50.562 46.4524 50.29 46.3174 49.864C46.1514 49.338 46.4434 48.775 46.9694 48.609C49.6624 47.756 50.8494 45.779 50.8614 45.759C51.1414 45.282 51.7534 45.122 52.2294 45.402C52.7064 45.681 52.8654 46.295 52.5864 46.77C52.5234 46.878 50.9914 49.433 47.5734 50.514C47.4724 50.547 47.3704 50.562 47.2714 50.562ZM42.6524 39.892C42.1564 39.892 41.7254 39.523 41.6614 39.017C41.5924 38.469 41.9804 37.969 42.5284 37.899C45.2174 37.559 47.1854 35.928 47.2044 35.911C47.6264 35.557 48.2574 35.608 48.6124 36.03C48.9684 36.451 48.9174 37.08 48.4974 37.437C48.4004 37.52 46.0774 39.466 42.7794 39.883C42.7364 39.889 42.6944 39.892 42.6524 39.892ZM40.8314 35.125C40.4064 35.125 40.0124 34.852 39.8774 34.424C39.7124 33.897 40.0044 33.336 40.5314 33.17C43.6614 32.187 44.7844 30.478 44.8304 30.406C45.1254 29.944 45.7414 29.801 46.2054 30.094C46.6704 30.386 46.8164 30.993 46.5294 31.46C46.4694 31.557 45.0234 33.856 41.1304 35.079C41.0314 35.11 40.9304 35.125 40.8314 35.125Z" fill="#744EAA"/>
<path d="M16.1349 85V74.8182H19.7641C20.5563 74.8182 21.2125 74.9624 21.7329 75.2507C22.2533 75.5391 22.6427 75.9335 22.9012 76.4339C23.1597 76.9311 23.289 77.4912 23.289 78.1143C23.289 78.7408 23.1581 79.3042 22.8962 79.8047C22.6377 80.3018 22.2466 80.6963 21.723 80.9879C21.2026 81.2763 20.548 81.4205 19.7592 81.4205H17.2634V80.1179H19.62C20.1204 80.1179 20.5265 80.0317 20.838 79.8594C21.1496 79.6837 21.3783 79.4451 21.5241 79.1435C21.6699 78.8419 21.7428 78.4988 21.7428 78.1143C21.7428 77.7299 21.6699 77.3885 21.5241 77.0902C21.3783 76.7919 21.1479 76.5582 20.833 76.3892C20.5215 76.2202 20.1105 76.1357 19.6001 76.1357H17.6711V85H16.1349ZM24.9706 85V77.3636H26.4074V78.5767H26.487C26.6262 78.1657 26.8715 77.8426 27.2228 77.6072C27.5774 77.3686 27.9785 77.2493 28.4259 77.2493C28.5187 77.2493 28.6281 77.2526 28.754 77.2592C28.8833 77.2659 28.9844 77.2741 29.0573 77.2841V78.706C28.9976 78.6894 28.8916 78.6712 28.7391 78.6513C28.5866 78.6281 28.4342 78.6165 28.2817 78.6165C27.9304 78.6165 27.6172 78.6911 27.3421 78.8402C27.0703 78.986 26.8549 79.1899 26.6958 79.4517C26.5367 79.7102 26.4572 80.0052 26.4572 80.3366V85H24.9706ZM33.2869 85.1541C32.571 85.1541 31.9462 84.9901 31.4126 84.6619C30.879 84.3338 30.4647 83.8748 30.1697 83.2848C29.8747 82.6948 29.7272 82.0054 29.7272 81.2166C29.7272 80.4245 29.8747 79.7318 30.1697 79.1385C30.4647 78.5452 30.879 78.0845 31.4126 77.7564C31.9462 77.4283 32.571 77.2642 33.2869 77.2642C34.0028 77.2642 34.6275 77.4283 35.1612 77.7564C35.6948 78.0845 36.1091 78.5452 36.4041 79.1385C36.699 79.7318 36.8465 80.4245 36.8465 81.2166C36.8465 82.0054 36.699 82.6948 36.4041 83.2848C36.1091 83.8748 35.6948 84.3338 35.1612 84.6619C34.6275 84.9901 34.0028 85.1541 33.2869 85.1541ZM33.2918 83.9062C33.7559 83.9062 34.1403 83.7836 34.4453 83.5384C34.7502 83.2931 34.9756 82.9666 35.1214 82.5589C35.2705 82.1513 35.3451 81.7022 35.3451 81.2116C35.3451 80.7244 35.2705 80.277 35.1214 79.8693C34.9756 79.4583 34.7502 79.1286 34.4453 78.88C34.1403 78.6314 33.7559 78.5071 33.2918 78.5071C32.8245 78.5071 32.4367 78.6314 32.1285 78.88C31.8236 79.1286 31.5965 79.4583 31.4474 79.8693C31.3016 80.277 31.2286 80.7244 31.2286 81.2116C31.2286 81.7022 31.3016 82.1513 31.4474 82.5589C31.5965 82.9666 31.8236 83.2931 32.1285 83.5384C32.4367 83.7836 32.8245 83.9062 33.2918 83.9062ZM38.6251 85V74.8182H40.1116V78.6016H40.2011C40.2873 78.4425 40.4116 78.2585 40.574 78.0497C40.7364 77.8409 40.9618 77.6586 41.2501 77.5028C41.5385 77.3438 41.9196 77.2642 42.3936 77.2642C43.0101 77.2642 43.5603 77.42 44.0442 77.7315C44.5281 78.0431 44.9076 78.4922 45.1826 79.0788C45.4611 79.6655 45.6003 80.3714 45.6003 81.1967C45.6003 82.022 45.4627 82.7296 45.1876 83.3196C44.9125 83.9062 44.5347 84.3587 44.0541 84.6768C43.5735 84.9917 43.025 85.1491 42.4085 85.1491C41.9445 85.1491 41.565 85.0713 41.27 84.9155C40.9783 84.7597 40.7496 84.5774 40.5839 84.3686C40.4182 84.1598 40.2906 83.9742 40.2011 83.8118H40.0768V85H38.6251ZM40.0818 81.1818C40.0818 81.7187 40.1597 82.1894 40.3155 82.5938C40.4712 82.9981 40.6966 83.3146 40.9916 83.5433C41.2866 83.7687 41.6478 83.8814 42.0754 83.8814C42.5195 83.8814 42.8907 83.7637 43.189 83.5284C43.4873 83.2898 43.7127 82.9666 43.8652 82.5589C44.021 82.1513 44.0988 81.6922 44.0988 81.1818C44.0988 80.678 44.0226 80.2256 43.8701 79.8246C43.721 79.4235 43.4956 79.107 43.194 78.875C42.8957 78.643 42.5228 78.527 42.0754 78.527C41.6445 78.527 41.2799 78.638 40.9817 78.8601C40.6867 79.0821 40.463 79.392 40.3105 79.7898C40.158 80.1875 40.0818 80.6515 40.0818 81.1818ZM48.756 74.8182V85H47.2695V74.8182H48.756ZM54.047 85.1541C53.2946 85.1541 52.6467 84.9934 52.1031 84.6719C51.5629 84.3471 51.1452 83.8913 50.8503 83.3047C50.5586 82.7147 50.4128 82.0237 50.4128 81.2315C50.4128 80.4493 50.5586 79.7599 50.8503 79.1634C51.1452 78.5668 51.5562 78.1011 52.0832 77.7663C52.6135 77.4316 53.2333 77.2642 53.9426 77.2642C54.3735 77.2642 54.7911 77.3355 55.1954 77.478C55.5998 77.6205 55.9627 77.8442 56.2842 78.1491C56.6057 78.4541 56.8593 78.8501 57.0449 79.3374C57.2305 79.8213 57.3233 80.4096 57.3233 81.1023V81.6293H51.253V80.5156H55.8666C55.8666 80.1245 55.7871 79.7782 55.628 79.4766C55.4689 79.1716 55.2451 78.9313 54.9568 78.7557C54.6718 78.58 54.337 78.4922 53.9525 78.4922C53.5349 78.4922 53.1703 78.5949 52.8588 78.8004C52.5505 79.0026 52.3119 79.2678 52.1429 79.5959C51.9772 79.9207 51.8943 80.2737 51.8943 80.6548V81.5249C51.8943 82.0353 51.9838 82.4695 52.1628 82.8274C52.3451 83.1854 52.5986 83.4588 52.9234 83.6477C53.2482 83.8333 53.6277 83.9261 54.0619 83.9261C54.3436 83.9261 54.6005 83.8864 54.8325 83.8068C55.0645 83.724 55.265 83.6013 55.4341 83.4389C55.6031 83.2765 55.7324 83.076 55.8219 82.8374L57.2288 83.0909C57.1161 83.5052 56.9139 83.8681 56.6223 84.1797C56.3339 84.4879 55.971 84.7282 55.5335 84.9006C55.0993 85.0696 54.6038 85.1541 54.047 85.1541ZM58.9726 85V77.3636H60.3994V78.6065H60.4939C60.653 78.1856 60.9132 77.8575 61.2744 77.6222C61.6357 77.3835 62.0682 77.2642 62.572 77.2642C63.0824 77.2642 63.51 77.3835 63.8547 77.6222C64.2027 77.8608 64.4596 78.1889 64.6253 78.6065H64.7048C64.8871 78.1989 65.1771 77.8741 65.5749 77.6321C65.9726 77.3868 66.4466 77.2642 66.9967 77.2642C67.6895 77.2642 68.2546 77.4813 68.6921 77.9155C69.1329 78.3497 69.3533 79.0043 69.3533 79.8793V85H67.8668V80.0185C67.8668 79.5014 67.7259 79.1269 67.4442 78.8949C67.1625 78.6629 66.8261 78.5469 66.435 78.5469C65.9511 78.5469 65.5749 78.696 65.3064 78.9943C65.0379 79.2893 64.9037 79.6688 64.9037 80.1328V85H63.4222V79.924C63.4222 79.5097 63.2929 79.1766 63.0344 78.9247C62.7759 78.6728 62.4395 78.5469 62.0252 78.5469C61.7434 78.5469 61.4833 78.6214 61.2446 78.7706C61.0093 78.9164 60.8187 79.1203 60.6729 79.3821C60.5304 79.6439 60.4591 79.9472 60.4591 80.2919V85H58.9726ZM73.5679 85.169C73.084 85.169 72.6465 85.0795 72.2554 84.9006C71.8643 84.7183 71.5545 84.4548 71.3258 84.1101C71.1004 83.7654 70.9877 83.3428 70.9877 82.8423C70.9877 82.4115 71.0706 82.0568 71.2363 81.7784C71.402 81.5 71.6257 81.2796 71.9074 81.1172C72.1892 80.9548 72.504 80.8321 72.852 80.7493C73.2 80.6664 73.5547 80.6035 73.916 80.5604C74.3733 80.5073 74.7446 80.4643 75.0296 80.4311C75.3146 80.3946 75.5218 80.3366 75.651 80.2571C75.7803 80.1776 75.8449 80.0483 75.8449 79.8693V79.8345C75.8449 79.4003 75.7223 79.0639 75.477 78.8253C75.2351 78.5866 74.8738 78.4673 74.3932 78.4673C73.8928 78.4673 73.4983 78.5784 73.21 78.8004C72.925 79.0192 72.7277 79.2628 72.6184 79.5312L71.2214 79.2131C71.3871 78.7491 71.629 78.3745 71.9472 78.0895C72.2687 77.8011 72.6383 77.5923 73.0559 77.4631C73.4735 77.3305 73.9126 77.2642 74.3733 77.2642C74.6783 77.2642 75.0014 77.3007 75.3428 77.3736C75.6875 77.4432 76.009 77.5724 76.3073 77.7614C76.6089 77.9503 76.8558 78.2204 77.0481 78.5717C77.2403 78.9197 77.3364 79.3722 77.3364 79.929V85H75.8847V83.956H75.825C75.7289 84.1482 75.5848 84.3371 75.3925 84.5227C75.2003 84.7083 74.9534 84.8625 74.6518 84.9851C74.3501 85.1077 73.9889 85.169 73.5679 85.169ZM73.8911 83.9759C74.3021 83.9759 74.6534 83.8946 74.9451 83.7322C75.2401 83.5698 75.4638 83.3577 75.6162 83.0959C75.772 82.8307 75.8499 82.5473 75.8499 82.2457V81.2614C75.7969 81.3144 75.6941 81.3641 75.5417 81.4105C75.3925 81.4536 75.2218 81.4917 75.0296 81.5249C74.8374 81.5547 74.6501 81.5829 74.4678 81.6094C74.2855 81.6326 74.1331 81.6525 74.0104 81.669C73.7221 81.7055 73.4586 81.7668 73.2199 81.853C72.9846 81.9392 72.7957 82.0634 72.6532 82.2259C72.514 82.3849 72.4444 82.5971 72.4444 82.8622C72.4444 83.2301 72.5803 83.5085 72.852 83.6974C73.1238 83.883 73.4702 83.9759 73.8911 83.9759Z" fill="#F4F4F5"/>
</svg>
