<svg width="94" height="112" viewBox="0 0 94 112" fill="none" xmlns="http://www.w3.org/2000/svg">
<path d="M0.333374 8C0.333374 3.58172 3.9151 0 8.33337 0H85.6667C90.085 0 93.6667 3.58172 93.6667 8V104C93.6667 108.418 90.085 112 85.6667 112H8.33338C3.9151 112 0.333374 108.418 0.333374 104V8Z" fill="#27272A"/>
<path d="M58 33.92C58 40.359 53 41.359 53 47.36C53 50.458 49.877 50.719 47.5 50.719C45.447 50.719 40.914 49.94 40.914 47.358C40.914 41.36 36 40.36 36 33.92C36 27.889 41.285 23 47.083 23C52.883 23 58 27.889 58 33.92Z" fill="#FFD983"/>
<path d="M51.167 55.36C51.167 56.188 48.933 57.86 47 57.86C45.067 57.86 42.833 56.188 42.833 55.36C42.833 54.532 45.066 54.86 47 54.86C48.933 54.86 51.167 54.532 51.167 55.36Z" fill="#CCD6DD"/>
<path d="M51.707 33.153C51.316 32.762 50.684 32.762 50.293 33.153L47 36.446L43.707 33.153C43.316 32.762 42.684 32.762 42.293 33.153C41.902 33.544 41.902 34.176 42.293 34.567L46 38.274V48.86C46 49.413 46.448 49.86 47 49.86C47.552 49.86 48 49.413 48 48.86V38.274L51.707 34.567C52.098 34.176 52.098 33.544 51.707 33.153Z" fill="#FFCC4D"/>
<path d="M53 53.86C53 54.964 52.104 55.86 51 55.86H43C41.896 55.86 41 54.964 41 53.86V47.86H53V53.86Z" fill="#99AAB5"/>
<path d="M40.9989 54.86C40.5189 54.86 40.0949 54.513 40.0139 54.024C39.9229 53.48 40.2909 52.964 40.8359 52.874L52.8359 50.874C53.3799 50.776 53.8959 51.151 53.9859 51.696C54.0769 52.24 53.7089 52.756 53.1639 52.846L41.1639 54.846C41.1089 54.856 41.0529 54.86 40.9989 54.86ZM40.9989 50.86C40.5189 50.86 40.0949 50.513 40.0139 50.024C39.9229 49.48 40.2909 48.964 40.8359 48.874L52.8359 46.874C53.3799 46.777 53.8959 47.151 53.9859 47.696C54.0769 48.24 53.7089 48.756 53.1639 48.846L41.1639 50.846C41.1089 50.856 41.0529 50.86 40.9989 50.86Z" fill="#CCD6DD"/>
<path d="M33.5494 74.8182V85H32.0132V74.8182H33.5494ZM38.526 85.1491C37.9095 85.1491 37.3593 84.9917 36.8754 84.6768C36.3948 84.3587 36.017 83.9062 35.7419 83.3196C35.4701 82.7296 35.3342 82.022 35.3342 81.1967C35.3342 80.3714 35.4718 79.6655 35.7468 79.0788C36.0253 78.4922 36.4064 78.0431 36.8903 77.7315C37.3742 77.42 37.9227 77.2642 38.5359 77.2642C39.0099 77.2642 39.391 77.3438 39.6794 77.5028C39.971 77.6586 40.1964 77.8409 40.3555 78.0497C40.5179 78.2585 40.6439 78.4425 40.7334 78.6016H40.8228V74.8182H42.3093V85H40.8576V83.8118H40.7334C40.6439 83.9742 40.5146 84.1598 40.3456 84.3686C40.1798 84.5774 39.9512 84.7597 39.6595 84.9155C39.3678 85.0713 38.99 85.1491 38.526 85.1491ZM38.8541 83.8814C39.2816 83.8814 39.6429 83.7687 39.9379 83.5433C40.2362 83.3146 40.4616 82.9981 40.614 82.5938C40.7698 82.1894 40.8477 81.7187 40.8477 81.1818C40.8477 80.6515 40.7715 80.1875 40.619 79.7898C40.4665 79.392 40.2428 79.0821 39.9478 78.8601C39.6529 78.638 39.2883 78.527 38.8541 78.527C38.4066 78.527 38.0338 78.643 37.7355 78.875C37.4372 79.107 37.2118 79.4235 37.0593 79.8246C36.9102 80.2256 36.8356 80.678 36.8356 81.1818C36.8356 81.6922 36.9119 82.1513 37.0643 82.5589C37.2168 82.9666 37.4422 83.2898 37.7405 83.5284C38.0421 83.7637 38.4133 83.8814 38.8541 83.8814ZM47.7222 85.1541C46.9698 85.1541 46.3218 84.9934 45.7783 84.6719C45.238 84.3471 44.8204 83.8913 44.5254 83.3047C44.2338 82.7147 44.0879 82.0237 44.0879 81.2315C44.0879 80.4493 44.2338 79.7599 44.5254 79.1634C44.8204 78.5668 45.2314 78.1011 45.7584 77.7663C46.2887 77.4316 46.9085 77.2642 47.6178 77.2642C48.0486 77.2642 48.4662 77.3355 48.8706 77.478C49.275 77.6205 49.6379 77.8442 49.9594 78.1491C50.2809 78.4541 50.5344 78.8501 50.72 79.3374C50.9056 79.8213 50.9984 80.4096 50.9984 81.1023V81.6293H44.9281V80.5156H49.5418C49.5418 80.1245 49.4622 79.7782 49.3031 79.4766C49.144 79.1716 48.9203 78.9313 48.632 78.7557C48.3469 78.58 48.0122 78.4922 47.6277 78.4922C47.2101 78.4922 46.8455 78.5949 46.534 78.8004C46.2257 79.0026 45.9871 79.2678 45.818 79.5959C45.6523 79.9207 45.5695 80.2737 45.5695 80.6548V81.5249C45.5695 82.0353 45.659 82.4695 45.8379 82.8274C46.0202 83.1854 46.2738 83.4588 46.5986 83.6477C46.9234 83.8333 47.3029 83.9261 47.7371 83.9261C48.0188 83.9261 48.2757 83.8864 48.5077 83.8068C48.7397 83.724 48.9402 83.6013 49.1092 83.4389C49.2783 83.2765 49.4075 83.076 49.497 82.8374L50.904 83.0909C50.7913 83.5052 50.5891 83.8681 50.2974 84.1797C50.0091 84.4879 49.6462 84.7282 49.2087 84.9006C48.7745 85.0696 48.279 85.1541 47.7222 85.1541ZM52.6478 85V77.3636H54.1343V85H52.6478ZM53.3985 76.1854C53.14 76.1854 52.9179 76.0992 52.7323 75.9268C52.55 75.7512 52.4588 75.5424 52.4588 75.3004C52.4588 75.0552 52.55 74.8464 52.7323 74.674C52.9179 74.4983 53.14 74.4105 53.3985 74.4105C53.657 74.4105 53.8774 74.4983 54.0597 74.674C54.2453 74.8464 54.3381 75.0552 54.3381 75.3004C54.3381 75.5424 54.2453 75.7512 54.0597 75.9268C53.8774 76.0992 53.657 76.1854 53.3985 76.1854ZM58.3564 85.169C57.8725 85.169 57.435 85.0795 57.0439 84.9006C56.6528 84.7183 56.3429 84.4548 56.1142 84.1101C55.8888 83.7654 55.7761 83.3428 55.7761 82.8423C55.7761 82.4115 55.859 82.0568 56.0247 81.7784C56.1904 81.5 56.4142 81.2796 56.6959 81.1172C56.9776 80.9548 57.2925 80.8321 57.6405 80.7493C57.9885 80.6664 58.3431 80.6035 58.7044 80.5604C59.1618 80.5073 59.533 80.4643 59.818 80.4311C60.1031 80.3946 60.3102 80.3366 60.4395 80.2571C60.5688 80.1776 60.6334 80.0483 60.6334 79.8693V79.8345C60.6334 79.4003 60.5108 79.0639 60.2655 78.8253C60.0235 78.5866 59.6623 78.4673 59.1817 78.4673C58.6812 78.4673 58.2868 78.5784 57.9984 78.8004C57.7134 79.0192 57.5162 79.2628 57.4068 79.5312L56.0098 79.2131C56.1755 78.7491 56.4175 78.3745 56.7357 78.0895C57.0572 77.8011 57.4267 77.5923 57.8443 77.4631C58.2619 77.3305 58.7011 77.2642 59.1618 77.2642C59.4667 77.2642 59.7899 77.3007 60.1313 77.3736C60.476 77.4432 60.7974 77.5724 61.0957 77.7614C61.3974 77.9503 61.6443 78.2204 61.8365 78.5717C62.0287 78.9197 62.1249 79.3722 62.1249 79.929V85H60.6732V83.956H60.6135C60.5174 84.1482 60.3732 84.3371 60.181 84.5227C59.9887 84.7083 59.7418 84.8625 59.4402 84.9851C59.1386 85.1077 58.7773 85.169 58.3564 85.169ZM58.6796 83.9759C59.0905 83.9759 59.4419 83.8946 59.7335 83.7322C60.0285 83.5698 60.2522 83.3577 60.4047 83.0959C60.5605 82.8307 60.6384 82.5473 60.6384 82.2457V81.2614C60.5853 81.3144 60.4826 81.3641 60.3301 81.4105C60.181 81.4536 60.0103 81.4917 59.818 81.5249C59.6258 81.5547 59.4385 81.5829 59.2563 81.6094C59.074 81.6326 58.9215 81.6525 58.7989 81.669C58.5105 81.7055 58.247 81.7668 58.0084 81.853C57.7731 81.9392 57.5841 82.0634 57.4416 82.2259C57.3024 82.3849 57.2328 82.5971 57.2328 82.8622C57.2328 83.2301 57.3687 83.5085 57.6405 83.6974C57.9123 83.883 58.2586 83.9759 58.6796 83.9759Z" fill="#F4F4F5"/>
</svg>
