<svg width="94" height="112" viewBox="0 0 94 112" fill="none" xmlns="http://www.w3.org/2000/svg">
<path d="M0.666626 8C0.666626 3.58172 4.24835 0 8.66663 0H86C90.4182 0 94 3.58172 94 8V104C94 108.418 90.4182 112 86 112H8.66663C4.24835 112 0.666626 108.418 0.666626 104V8Z" fill="#27272A"/>
<path d="M65.3333 34.875C65.3333 31.009 62.1993 27.875 58.3333 27.875C57.1663 27.875 56.0683 28.165 55.1013 28.669C53.0193 25.842 49.6763 24 45.8963 24C40.7643 24 36.4213 27.38 34.9733 32.036C32.3153 32.653 30.3333 35.03 30.3333 37.875C30.3333 40.854 32.5073 43.32 35.3543 43.788C35.5703 47.737 38.8313 50.875 42.8333 50.875C45.0093 50.875 46.9633 49.942 48.3333 48.462C49.7033 49.942 51.6563 50.875 53.8333 50.875C57.9763 50.875 61.3333 47.518 61.3333 43.375C61.3333 42.665 61.2283 41.981 61.0443 41.33C63.5633 40.271 65.3333 37.78 65.3333 34.875Z" fill="#85C8F8"/>
<path d="M34.3333 56.875C35.9902 56.875 37.3333 55.5319 37.3333 53.875C37.3333 52.2181 35.9902 50.875 34.3333 50.875C32.6765 50.875 31.3333 52.2181 31.3333 53.875C31.3333 55.5319 32.6765 56.875 34.3333 56.875Z" fill="#85C8F8"/>
<path d="M38.3813 79.9091C38.3813 80.9962 38.1825 81.9309 37.7847 82.7131C37.387 83.492 36.8418 84.0919 36.1491 84.5128C35.4597 84.9304 34.6758 85.1392 33.7975 85.1392C32.9159 85.1392 32.1287 84.9304 31.436 84.5128C30.7466 84.0919 30.2031 83.4903 29.8053 82.7081C29.4076 81.9259 29.2087 80.9929 29.2087 79.9091C29.2087 78.822 29.4076 77.889 29.8053 77.1101C30.2031 76.3279 30.7466 75.728 31.436 75.3104C32.1287 74.8894 32.9159 74.679 33.7975 74.679C34.6758 74.679 35.4597 74.8894 36.1491 75.3104C36.8418 75.728 37.387 76.3279 37.7847 77.1101C38.1825 77.889 38.3813 78.822 38.3813 79.9091ZM36.86 79.9091C36.86 79.0805 36.7258 78.3828 36.4573 77.8161C36.1922 77.246 35.8276 76.8151 35.3636 76.5234C34.9029 76.2285 34.3808 76.081 33.7975 76.081C33.2109 76.081 32.6872 76.2285 32.2265 76.5234C31.7658 76.8151 31.4012 77.246 31.1327 77.8161C30.8676 78.3828 30.735 79.0805 30.735 79.9091C30.735 80.7377 30.8676 81.437 31.1327 82.0071C31.4012 82.5739 31.7658 83.0047 32.2265 83.2997C32.6872 83.5914 33.2109 83.7372 33.7975 83.7372C34.3808 83.7372 34.9029 83.5914 35.3636 83.2997C35.8276 83.0047 36.1922 82.5739 36.4573 82.0071C36.7258 81.437 36.86 80.7377 36.86 79.9091ZM45.0147 81.8331V77.3636H46.5061V85H45.0445V83.6776H44.965C44.7893 84.0852 44.5076 84.425 44.1198 84.6967C43.7353 84.9652 43.2564 85.0994 42.683 85.0994C42.1925 85.0994 41.7583 84.9917 41.3804 84.7763C41.0059 84.5575 40.7109 84.2344 40.4955 83.8068C40.2834 83.3793 40.1773 82.8506 40.1773 82.2209V77.3636H41.6638V82.0419C41.6638 82.5623 41.808 82.9766 42.0963 83.2848C42.3847 83.593 42.7592 83.7472 43.2199 83.7472C43.4983 83.7472 43.7751 83.6776 44.0502 83.5384C44.3286 83.3991 44.5589 83.1887 44.7412 82.907C44.9268 82.6252 45.018 82.2673 45.0147 81.8331ZM52.0681 77.3636V78.5568H47.8969V77.3636H52.0681ZM49.0156 75.5341H50.5021V82.7578C50.5021 83.0462 50.5451 83.2633 50.6313 83.4091C50.7175 83.5516 50.8285 83.6494 50.9644 83.7024C51.1036 83.7521 51.2544 83.777 51.4168 83.777C51.5362 83.777 51.6406 83.7687 51.73 83.7521C51.8195 83.7356 51.8891 83.7223 51.9389 83.7124L52.2073 84.9403C52.1211 84.9735 51.9985 85.0066 51.8394 85.0398C51.6803 85.0762 51.4815 85.0961 51.2428 85.0994C50.8517 85.1061 50.4871 85.0365 50.1491 84.8906C49.811 84.7448 49.5376 84.5194 49.3288 84.2145C49.12 83.9096 49.0156 83.5268 49.0156 83.0661V75.5341ZM53.7125 85V77.3636H55.1493V78.5767H55.2288C55.368 78.1657 55.6133 77.8426 55.9646 77.6072C56.3192 77.3686 56.7203 77.2493 57.1677 77.2493C57.2605 77.2493 57.3699 77.2526 57.4958 77.2592C57.6251 77.2659 57.7262 77.2741 57.7991 77.2841V78.706C57.7395 78.6894 57.6334 78.6712 57.4809 78.6513C57.3285 78.6281 57.176 78.6165 57.0235 78.6165C56.6722 78.6165 56.359 78.6911 56.0839 78.8402C55.8121 78.986 55.5967 79.1899 55.4376 79.4517C55.2785 79.7102 55.199 80.0052 55.199 80.3366V85H53.7125ZM62.0287 85.1541C61.3128 85.1541 60.688 84.9901 60.1544 84.6619C59.6208 84.3338 59.2065 83.8748 58.9115 83.2848C58.6165 82.6948 58.469 82.0054 58.469 81.2166C58.469 80.4245 58.6165 79.7318 58.9115 79.1385C59.2065 78.5452 59.6208 78.0845 60.1544 77.7564C60.688 77.4283 61.3128 77.2642 62.0287 77.2642C62.7446 77.2642 63.3694 77.4283 63.903 77.7564C64.4366 78.0845 64.8509 78.5452 65.1459 79.1385C65.4409 79.7318 65.5884 80.4245 65.5884 81.2166C65.5884 82.0054 65.4409 82.6948 65.1459 83.2848C64.8509 83.8748 64.4366 84.3338 63.903 84.6619C63.3694 84.9901 62.7446 85.1541 62.0287 85.1541ZM62.0337 83.9062C62.4977 83.9062 62.8822 83.7836 63.1871 83.5384C63.492 83.2931 63.7174 82.9666 63.8632 82.5589C64.0124 82.1513 64.0869 81.7022 64.0869 81.2116C64.0869 80.7244 64.0124 80.277 63.8632 79.8693C63.7174 79.4583 63.492 79.1286 63.1871 78.88C62.8822 78.6314 62.4977 78.5071 62.0337 78.5071C61.5663 78.5071 61.1786 78.6314 60.8703 78.88C60.5654 79.1286 60.3384 79.4583 60.1892 79.8693C60.0434 80.277 59.9705 80.7244 59.9705 81.2116C59.9705 81.7022 60.0434 82.1513 60.1892 82.5589C60.3384 82.9666 60.5654 83.2931 60.8703 83.5384C61.1786 83.7836 61.5663 83.9062 62.0337 83.9062Z" fill="#F4F4F5"/>
</svg>
